<?xml version="1.0" encoding="UTF-8" standalone="no"?>
<svg
   xmlns:dc="http://purl.org/dc/elements/1.1/"
   xmlns:cc="http://creativecommons.org/ns#"
   xmlns:rdf="http://www.w3.org/1999/02/22-rdf-syntax-ns#"
   xmlns:svg="http://www.w3.org/2000/svg"
   xmlns="http://www.w3.org/2000/svg"
   xmlns:sodipodi="http://sodipodi.sourceforge.net/DTD/sodipodi-0.dtd"
   xmlns:inkscape="http://www.inkscape.org/namespaces/inkscape"
   version="1.1"
   id="Layer_1"
   x="0px"
   y="0px"
   width="128"
   height="128"
   viewBox="0 0 128 128"
   enable-background="new 0 0 196 197"
   xml:space="preserve"
   inkscape:version="0.91 r13725"
   sodipodi:docname="lock.svg"
   inkscape:export-filename="/home/neale/src/chrome-pwgen/img/lock-icon.png"
   inkscape:export-xdpi="90"
   inkscape:export-ydpi="90"><metadata
     id="metadata3244"><rdf:RDF><cc:Work
         rdf:about=""><dc:format>image/svg+xml</dc:format><dc:type
           rdf:resource="http://purl.org/dc/dcmitype/StillImage" /><dc:title></dc:title></cc:Work></rdf:RDF></metadata><defs
     id="defs3242" /><sodipodi:namedview
     pagecolor="#ffffff"
     bordercolor="#666666"
     borderopacity="1"
     objecttolerance="10"
     gridtolerance="10"
     guidetolerance="10"
     inkscape:pageopacity="0"
     inkscape:pageshadow="2"
     inkscape:window-width="1920"
     inkscape:window-height="1016"
     id="namedview3240"
     showgrid="false"
     inkscape:snap-bbox="true"
     inkscape:snap-intersection-paths="true"
     fit-margin-top="10"
     fit-margin-left="10"
     fit-margin-right="10"
     fit-margin-bottom="10"
     inkscape:zoom="5.6568542"
     inkscape:cx="50.268094"
     inkscape:cy="63.778497"
     inkscape:window-x="0"
     inkscape:window-y="27"
     inkscape:window-maximized="1"
     inkscape:current-layer="Layer_1" /><g
     id="g3255"
     transform="matrix(0.62784631,0,0,0.62784631,-2.5517089,-26.280498)"
     style="stroke-width:1.59274648;stroke-miterlimit:4;stroke-dasharray:none;stroke:#ffffff;stroke-opacity:1"><rect
       y="158"
       x="79"
       height="60.5"
       width="57.5"
       id="rect3201"
       style="opacity:1;fill:#ffffff;fill-opacity:1;fill-rule:nonzero;stroke:#ffffff;stroke-width:1.59274648;stroke-linejoin:miter;stroke-miterlimit:4;stroke-dasharray:none;stroke-opacity:1" /><path
       sodipodi:nodetypes="sscccccccccccs"
       inkscape:connector-curvature="0"
       id="path3269"
       d="M 105.99902,47.587891 C 77.288798,47.587789 54.014541,70.862047 54.014642,99.572266 l 0,12.294924 23.486328,0 0,-12.294924 -0.03711,0 c -3.43e-4,-15.759674 12.775483,-28.5355 28.53516,-28.535156 15.75968,-3.46e-4 28.5355,12.77548 28.53516,28.535156 l -0.0332,0 0,12.294924 23.48438,0 0,-12.294924 -0.002,0 C 157.9835,70.862045 134.70924,47.587787 105.99902,47.587891 Z"
       style="opacity:1;fill:#800080;fill-opacity:1;fill-rule:nonzero;stroke:#ffffff;stroke-width:1.59274648;stroke-linejoin:miter;stroke-miterlimit:4;stroke-dasharray:none;stroke-opacity:1" /><path
       inkscape:connector-curvature="0"
       id="rect3248"
       d="M 53.677734,122.06836 C 41.945142,122.06836 32.5,131.5135 32.5,143.24609 l 0,75.57618 C 32.5,230.55486 41.945142,240 53.677734,240 l 104.644536,0 C 170.05486,240 179.5,230.55486 179.5,218.82227 l 0,-75.57618 c 0,-11.73259 -9.44514,-21.17773 -21.17773,-21.17773 l -104.644536,0 z m 53.099606,37.57032 a 15.322605,15.322605 0 0 1 15.32422,15.32226 15.322605,15.322605 0 0 1 -6.46093,12.47656 l 0,16.60547 c 0,5.01652 -3.83798,9.05469 -8.60352,9.05469 -4.76554,0 -8.601563,-4.03817 -8.601563,-9.05469 l 0,-16.24609 a 15.322605,15.322605 0 0 1 -6.980469,-12.83594 15.322605,15.322605 0 0 1 15.322262,-15.32226 z"
       style="opacity:1;fill:#800080;fill-opacity:1;fill-rule:nonzero;stroke:#ffffff;stroke-width:1.59274648;stroke-linejoin:miter;stroke-miterlimit:4;stroke-dasharray:none;stroke-opacity:1" /></g></svg>