<?xml version="1.0" encoding="UTF-8" standalone="no"?>
<svg
   xmlns:dc="http://purl.org/dc/elements/1.1/"
   xmlns:cc="http://creativecommons.org/ns#"
   xmlns:rdf="http://www.w3.org/1999/02/22-rdf-syntax-ns#"
   xmlns:svg="http://www.w3.org/2000/svg"
   xmlns="http://www.w3.org/2000/svg"
   xmlns:sodipodi="http://sodipodi.sourceforge.net/DTD/sodipodi-0.dtd"
   xmlns:inkscape="http://www.inkscape.org/namespaces/inkscape"
   version="1.1"
   id="Layer_1"
   x="0px"
   y="0px"
   width="440"
   height="280"
   viewBox="0 0 440 280"
   enable-background="new 0 0 196 197"
   xml:space="preserve"
   inkscape:version="0.91 r13725"
   sodipodi:docname="lock-tile.svg"><metadata
     id="metadata3244"><rdf:RDF><cc:Work
         rdf:about=""><dc:format>image/svg+xml</dc:format><dc:type
           rdf:resource="http://purl.org/dc/dcmitype/StillImage" /><dc:title></dc:title></cc:Work></rdf:RDF></metadata><defs
     id="defs3242" /><sodipodi:namedview
     pagecolor="#122e29"
     bordercolor="#666666"
     borderopacity="1"
     objecttolerance="10"
     gridtolerance="10"
     guidetolerance="10"
     inkscape:pageopacity="1"
     inkscape:pageshadow="2"
     inkscape:window-width="1920"
     inkscape:window-height="1016"
     id="namedview3240"
     showgrid="false"
     inkscape:snap-bbox="true"
     inkscape:snap-intersection-paths="true"
     fit-margin-top="10"
     fit-margin-left="10"
     fit-margin-right="10"
     fit-margin-bottom="10"
     inkscape:zoom="1.4142136"
     inkscape:cx="155.66874"
     inkscape:cy="121.31836"
     inkscape:window-x="0"
     inkscape:window-y="27"
     inkscape:window-maximized="1"
     inkscape:current-layer="Layer_1" /><text
     xml:space="preserve"
     style="font-style:normal;font-variant:normal;font-weight:normal;font-stretch:normal;font-size:30px;line-height:100%;font-family:'URW Gothic L';-inkscape-font-specification:'URW Gothic L, Normal';text-align:start;letter-spacing:3.41000009px;word-spacing:0px;writing-mode:lr-tb;text-anchor:start;fill:#efefef;fill-opacity:0.30638302;stroke:none;stroke-width:1px;stroke-linecap:butt;stroke-linejoin:miter;stroke-opacity:1"
     x="120.75469"
     y="1.2595966"
     id="text3146"
     sodipodi:linespacing="100%"
     transform="matrix(0.93200991,-0.36243278,0.36243278,0.93200991,0,0)"><tspan
       sodipodi:role="line"
       id="tspan3148"
       x="120.75469"
       y="1.2595966" /><tspan
       sodipodi:role="line"
       x="120.75469"
       y="31.259596"
       id="tspan3150">Xql_C^v2MlYD</tspan><tspan
       sodipodi:role="line"
       x="120.75469"
       y="61.259594"
       id="tspan3156">346_APtarl)a</tspan><tspan
       sodipodi:role="line"
       x="120.75469"
       y="91.259598"
       id="tspan3160">Dqy$M2du@=pq</tspan><tspan
       sodipodi:role="line"
       x="120.75469"
       y="121.2596"
       id="tspan3164">98prN4~@!oUo</tspan><tspan
       sodipodi:role="line"
       x="120.75469"
       y="151.2596"
       id="tspan3168">X$)#h3L#2IhV</tspan><tspan
       sodipodi:role="line"
       x="120.75469"
       y="181.2596"
       id="tspan3172">!$wnunu2H!ud</tspan><tspan
       sodipodi:role="line"
       x="120.75469"
       y="211.2596"
       id="tspan3176">2Y8$O*25WVjy</tspan><tspan
       sodipodi:role="line"
       x="120.75469"
       y="241.2596"
       id="tspan3259">4dv&amp;1BFE@ic1</tspan><tspan
       sodipodi:role="line"
       x="120.75469"
       y="271.25961"
       id="tspan3184">p*9IsR6Ev!M5</tspan><tspan
       sodipodi:role="line"
       x="120.75469"
       y="301.25961"
       id="tspan3271">7N^nkOI)9v2)</tspan><tspan
       sodipodi:role="line"
       x="120.75469"
       y="331.25961"
       id="tspan3279">Qqspy7Av8#)8</tspan><tspan
       sodipodi:role="line"
       x="120.75469"
       y="361.25961"
       id="tspan3287">*=F2+W)Sf3nZ</tspan><tspan
       sodipodi:role="line"
       x="120.75469"
       y="391.25961"
       id="tspan3291">CkZ!(38EPm7v</tspan><tspan
       sodipodi:role="line"
       x="120.75469"
       y="421.25961"
       id="tspan3295">(7f($5AY#zb0</tspan><tspan
       sodipodi:role="line"
       x="120.75469"
       y="451.25961"
       id="tspan3299">)DgL5XRf-E_b</tspan><tspan
       sodipodi:role="line"
       x="120.75469"
       y="481.25961"
       id="tspan3283" /></text>
<g
     id="g3186"
     transform="matrix(1.3381286,0,0,1.3381286,-346.22184,-27.659424)"><path
       sodipodi:nodetypes="sscccccccccccs"
       inkscape:connector-curvature="0"
       id="path3269"
       d="M 340.49902,29.087891 C 311.7888,29.087789 288.51454,52.36205 288.51464,81.07227 l 0,12.29492 23.48633,0 0,-12.29492 -0.0371,0 c -3.4e-4,-15.75968 12.77548,-28.5355 28.53516,-28.53516 15.75968,-3.5e-4 28.5355,12.77548 28.53516,28.53516 l -0.0332,0 0,12.29492 23.48438,0 0,-12.29492 -0.002,0 C 392.4835,52.36204 369.20924,29.087787 340.49902,29.087891 Z"
       style="opacity:1;fill:#800080;fill-opacity:1;fill-rule:nonzero;stroke:#ffffff;stroke-width:1.33161473;stroke-linejoin:miter;stroke-miterlimit:4;stroke-dasharray:none" /><path
       inkscape:connector-curvature="0"
       id="rect3248"
       d="M 288.17773,103.56836 C 276.44514,103.56836 267,113.0135 267,124.74609 l 0,75.57618 c 0,11.73259 9.44514,21.17773 21.17773,21.17773 l 104.64454,0 C 404.55486,221.5 414,212.05486 414,200.32227 l 0,-75.57618 c 0,-11.73259 -9.44514,-21.17773 -21.17773,-21.17773 l -104.64454,0 z m 53.09961,37.57032 a 15.322605,15.322605 0 0 1 15.32422,15.32226 15.322605,15.322605 0 0 1 -6.46093,12.47656 l 0,16.60547 c 0,5.01652 -3.83798,9.05469 -8.60352,9.05469 -4.76554,0 -8.60156,-4.03817 -8.60156,-9.05469 l 0,-16.24609 a 15.322605,15.322605 0 0 1 -6.98047,-12.83594 15.322605,15.322605 0 0 1 15.32226,-15.32226 z"
       style="opacity:1;fill:#800080;fill-opacity:1;fill-rule:nonzero;stroke:#ffffff;stroke-width:1.29999995;stroke-linejoin:miter;stroke-miterlimit:4;stroke-dasharray:none" /></g></svg>