<?xml version="1.0" encoding="UTF-8" standalone="no"?>
<svg
   xmlns:dc="http://purl.org/dc/elements/1.1/"
   xmlns:cc="http://creativecommons.org/ns#"
   xmlns:rdf="http://www.w3.org/1999/02/22-rdf-syntax-ns#"
   xmlns:svg="http://www.w3.org/2000/svg"
   xmlns="http://www.w3.org/2000/svg"
   xmlns:sodipodi="http://sodipodi.sourceforge.net/DTD/sodipodi-0.dtd"
   xmlns:inkscape="http://www.inkscape.org/namespaces/inkscape"
   version="1.1"
   id="Layer_1"
   x="0px"
   y="0px"
   width="194"
   height="194"
   viewBox="0 0 194 194"
   enable-background="new 0 0 196 197"
   xml:space="preserve"
   inkscape:version="0.91 r13725"
   sodipodi:docname="lock.svg"
   inkscape:export-filename="/home/neale/src/chrome-pwgen/img/lock-icon.png"
   inkscape:export-xdpi="59.381443"
   inkscape:export-ydpi="59.381443"><metadata
     id="metadata3244"><rdf:RDF><cc:Work
         rdf:about=""><dc:format>image/svg+xml</dc:format><dc:type
           rdf:resource="http://purl.org/dc/dcmitype/StillImage" /><dc:title></dc:title></cc:Work></rdf:RDF></metadata><defs
     id="defs3242" /><sodipodi:namedview
     pagecolor="#ffffff"
     bordercolor="#666666"
     borderopacity="1"
     objecttolerance="10"
     gridtolerance="10"
     guidetolerance="10"
     inkscape:pageopacity="0"
     inkscape:pageshadow="2"
     inkscape:window-width="1366"
     inkscape:window-height="704"
     id="namedview3240"
     showgrid="false"
     inkscape:snap-bbox="true"
     inkscape:snap-intersection-paths="true"
     fit-margin-top="0"
     fit-margin-left="10"
     fit-margin-right="10"
     fit-margin-bottom="0"
     inkscape:zoom="1.4142136"
     inkscape:cx="14.094092"
     inkscape:cy="87.525349"
     inkscape:window-x="0"
     inkscape:window-y="27"
     inkscape:window-maximized="1"
     inkscape:current-layer="Layer_1" /><path
     style="opacity:1;fill:#800080;fill-opacity:1;fill-rule:nonzero;stroke:#ffffff;stroke-width:1.33161473;stroke-linejoin:miter;stroke-miterlimit:4;stroke-dasharray:none"
     d="M 96.999019,0.93788578 C 68.288797,0.93778468 45.01454,24.212041 45.014641,52.92226 l 0,12.294922 23.486328,0 0,-12.294922 -0.03711,0 c -3.43e-4,-15.759674 12.775483,-28.5355 28.53516,-28.535156 15.759681,-3.46e-4 28.535501,12.77548 28.535161,28.535156 l -0.0332,0 0,12.294922 23.48438,0 0,-12.294922 -0.002,0 C 148.9835,24.212039 125.70924,0.93778198 96.999019,0.93788578 Z"
     id="path3269"
     inkscape:connector-curvature="0"
     sodipodi:nodetypes="sscccccccccccs" /><path
     style="opacity:1;fill:#800080;fill-opacity:1;fill-rule:nonzero;stroke:#ffffff;stroke-width:1.29999995;stroke-linejoin:miter;stroke-miterlimit:4;stroke-dasharray:none"
     d="M 44.677734,75.418354 C 32.945142,75.418354 23.5,84.863495 23.5,96.596084 l 0,75.576186 c 0,11.73259 9.445142,21.17773 21.177734,21.17773 l 104.644536,0 c 11.73259,0 21.17773,-9.44514 21.17773,-21.17773 l 0,-75.576186 c 0,-11.732589 -9.44514,-21.17773 -21.17773,-21.17773 l -104.644536,0 z M 97.77734,112.98868 a 15.322605,15.322605 0 0 1 15.32422,15.32226 15.322605,15.322605 0 0 1 -6.46093,12.47656 l 0,16.60547 c 0,5.01652 -3.83798,9.05469 -8.60352,9.05469 -4.76554,0 -8.601563,-4.03817 -8.601563,-9.05469 l 0,-16.24609 A 15.322605,15.322605 0 0 1 82.455078,128.31094 15.322605,15.322605 0 0 1 97.77734,112.98868 Z"
     id="rect3248"
     inkscape:connector-curvature="0" /></svg>